<mxfile host="app.diagrams.net" modified="2021-04-03T08:35:24.519Z" agent="5.0 (Windows NT 10.0; Win64; x64) AppleWebKit/537.36 (KHTML, like Gecko) Chrome/89.0.4389.114 Safari/537.36" etag="8ohdFDV7nlOlw1OflwkX" version="14.5.6" type="github">
  <diagram id="uc5Inh4p8IArnTGNV41Y" name="Page-1">
    <mxGraphModel dx="1292" dy="728" grid="1" gridSize="10" guides="1" tooltips="1" connect="1" arrows="1" fold="1" page="1" pageScale="1" pageWidth="827" pageHeight="1169" math="0" shadow="0">
      <root>
        <mxCell id="0" />
        <mxCell id="1" parent="0" />
        <mxCell id="o9eBtAJIPWO3o0ZU7rO9-1" value="" style="rounded=0;whiteSpace=wrap;html=1;" vertex="1" parent="1">
          <mxGeometry x="200.72" y="260" width="120" height="240" as="geometry" />
        </mxCell>
        <mxCell id="o9eBtAJIPWO3o0ZU7rO9-2" value="" style="rounded=0;whiteSpace=wrap;html=1;" vertex="1" parent="1">
          <mxGeometry x="611.32" y="60" width="120" height="640" as="geometry" />
        </mxCell>
        <mxCell id="o9eBtAJIPWO3o0ZU7rO9-3" value="" style="endArrow=none;html=1;exitX=-0.006;exitY=0.08;exitDx=0;exitDy=0;exitPerimeter=0;entryX=1;entryY=0.083;entryDx=0;entryDy=0;entryPerimeter=0;" edge="1" parent="1" source="o9eBtAJIPWO3o0ZU7rO9-1" target="o9eBtAJIPWO3o0ZU7rO9-1">
          <mxGeometry width="50" height="50" relative="1" as="geometry">
            <mxPoint x="220.72" y="450" as="sourcePoint" />
            <mxPoint x="300.72" y="278" as="targetPoint" />
            <Array as="points" />
          </mxGeometry>
        </mxCell>
        <mxCell id="o9eBtAJIPWO3o0ZU7rO9-4" value="" style="endArrow=none;html=1;exitX=0;exitY=0.105;exitDx=0;exitDy=0;exitPerimeter=0;entryX=1;entryY=0.106;entryDx=0;entryDy=0;entryPerimeter=0;" edge="1" parent="1">
          <mxGeometry width="50" height="50" relative="1" as="geometry">
            <mxPoint x="200.72" y="300" as="sourcePoint" />
            <mxPoint x="320.7199999999998" y="300.16999999999996" as="targetPoint" />
          </mxGeometry>
        </mxCell>
        <mxCell id="o9eBtAJIPWO3o0ZU7rO9-5" value="" style="endArrow=none;html=1;exitX=0;exitY=0.105;exitDx=0;exitDy=0;exitPerimeter=0;entryX=1;entryY=0.106;entryDx=0;entryDy=0;entryPerimeter=0;" edge="1" parent="1">
          <mxGeometry width="50" height="50" relative="1" as="geometry">
            <mxPoint x="200.72" y="320" as="sourcePoint" />
            <mxPoint x="320.7199999999998" y="320.16999999999996" as="targetPoint" />
          </mxGeometry>
        </mxCell>
        <mxCell id="o9eBtAJIPWO3o0ZU7rO9-6" value="" style="endArrow=none;html=1;exitX=0;exitY=0.105;exitDx=0;exitDy=0;exitPerimeter=0;entryX=1;entryY=0.106;entryDx=0;entryDy=0;entryPerimeter=0;" edge="1" parent="1">
          <mxGeometry width="50" height="50" relative="1" as="geometry">
            <mxPoint x="200.72" y="340" as="sourcePoint" />
            <mxPoint x="320.7199999999998" y="340.16999999999996" as="targetPoint" />
          </mxGeometry>
        </mxCell>
        <mxCell id="o9eBtAJIPWO3o0ZU7rO9-7" value="" style="endArrow=none;html=1;exitX=0;exitY=0.105;exitDx=0;exitDy=0;exitPerimeter=0;entryX=1;entryY=0.106;entryDx=0;entryDy=0;entryPerimeter=0;" edge="1" parent="1">
          <mxGeometry width="50" height="50" relative="1" as="geometry">
            <mxPoint x="200.72" y="360" as="sourcePoint" />
            <mxPoint x="320.7199999999998" y="360.16999999999996" as="targetPoint" />
          </mxGeometry>
        </mxCell>
        <mxCell id="o9eBtAJIPWO3o0ZU7rO9-8" value="" style="endArrow=none;html=1;exitX=0;exitY=0.105;exitDx=0;exitDy=0;exitPerimeter=0;entryX=1;entryY=0.106;entryDx=0;entryDy=0;entryPerimeter=0;" edge="1" parent="1">
          <mxGeometry width="50" height="50" relative="1" as="geometry">
            <mxPoint x="200.72" y="379.58000000000004" as="sourcePoint" />
            <mxPoint x="320.7199999999998" y="379.75" as="targetPoint" />
          </mxGeometry>
        </mxCell>
        <mxCell id="o9eBtAJIPWO3o0ZU7rO9-9" value="" style="endArrow=none;html=1;exitX=0;exitY=0.105;exitDx=0;exitDy=0;exitPerimeter=0;entryX=1;entryY=0.106;entryDx=0;entryDy=0;entryPerimeter=0;" edge="1" parent="1">
          <mxGeometry width="50" height="50" relative="1" as="geometry">
            <mxPoint x="200.72" y="400" as="sourcePoint" />
            <mxPoint x="320.7199999999998" y="400.16999999999996" as="targetPoint" />
          </mxGeometry>
        </mxCell>
        <mxCell id="o9eBtAJIPWO3o0ZU7rO9-10" value="" style="endArrow=none;html=1;exitX=0;exitY=0.105;exitDx=0;exitDy=0;exitPerimeter=0;entryX=1;entryY=0.106;entryDx=0;entryDy=0;entryPerimeter=0;" edge="1" parent="1">
          <mxGeometry width="50" height="50" relative="1" as="geometry">
            <mxPoint x="200.72" y="420" as="sourcePoint" />
            <mxPoint x="320.7199999999998" y="420.16999999999996" as="targetPoint" />
          </mxGeometry>
        </mxCell>
        <mxCell id="o9eBtAJIPWO3o0ZU7rO9-11" value="" style="endArrow=none;html=1;exitX=0;exitY=0.105;exitDx=0;exitDy=0;exitPerimeter=0;entryX=1;entryY=0.106;entryDx=0;entryDy=0;entryPerimeter=0;" edge="1" parent="1">
          <mxGeometry width="50" height="50" relative="1" as="geometry">
            <mxPoint x="200.72" y="440" as="sourcePoint" />
            <mxPoint x="320.7199999999998" y="440.1700000000001" as="targetPoint" />
          </mxGeometry>
        </mxCell>
        <mxCell id="o9eBtAJIPWO3o0ZU7rO9-13" value="" style="endArrow=none;html=1;entryX=1;entryY=0.089;entryDx=0;entryDy=0;entryPerimeter=0;exitX=-0.011;exitY=0.089;exitDx=0;exitDy=0;exitPerimeter=0;" edge="1" parent="1" source="o9eBtAJIPWO3o0ZU7rO9-2" target="o9eBtAJIPWO3o0ZU7rO9-2">
          <mxGeometry width="50" height="50" relative="1" as="geometry">
            <mxPoint x="631.32" y="150" as="sourcePoint" />
            <mxPoint x="681.32" y="100" as="targetPoint" />
          </mxGeometry>
        </mxCell>
        <mxCell id="o9eBtAJIPWO3o0ZU7rO9-14" value="" style="endArrow=none;html=1;entryX=1;entryY=0.089;entryDx=0;entryDy=0;entryPerimeter=0;exitX=-0.011;exitY=0.089;exitDx=0;exitDy=0;exitPerimeter=0;" edge="1" parent="1">
          <mxGeometry width="50" height="50" relative="1" as="geometry">
            <mxPoint x="610.6600000000003" y="179.99999999999991" as="sourcePoint" />
            <mxPoint x="731.9800000000002" y="179.99999999999991" as="targetPoint" />
          </mxGeometry>
        </mxCell>
        <mxCell id="o9eBtAJIPWO3o0ZU7rO9-15" value="" style="endArrow=none;html=1;entryX=1;entryY=0.089;entryDx=0;entryDy=0;entryPerimeter=0;exitX=-0.011;exitY=0.089;exitDx=0;exitDy=0;exitPerimeter=0;" edge="1" parent="1">
          <mxGeometry width="50" height="50" relative="1" as="geometry">
            <mxPoint x="611.3200000000004" y="249.99999999999994" as="sourcePoint" />
            <mxPoint x="732.6400000000003" y="249.99999999999994" as="targetPoint" />
          </mxGeometry>
        </mxCell>
        <mxCell id="o9eBtAJIPWO3o0ZU7rO9-16" value="" style="endArrow=none;html=1;entryX=1;entryY=0.089;entryDx=0;entryDy=0;entryPerimeter=0;exitX=-0.011;exitY=0.089;exitDx=0;exitDy=0;exitPerimeter=0;" edge="1" parent="1">
          <mxGeometry width="50" height="50" relative="1" as="geometry">
            <mxPoint x="610.6600000000003" y="319.9999999999999" as="sourcePoint" />
            <mxPoint x="731.9800000000002" y="319.9999999999999" as="targetPoint" />
          </mxGeometry>
        </mxCell>
        <mxCell id="o9eBtAJIPWO3o0ZU7rO9-17" value="" style="endArrow=none;html=1;entryX=1;entryY=0.089;entryDx=0;entryDy=0;entryPerimeter=0;exitX=-0.011;exitY=0.089;exitDx=0;exitDy=0;exitPerimeter=0;" edge="1" parent="1">
          <mxGeometry width="50" height="50" relative="1" as="geometry">
            <mxPoint x="610.0000000000003" y="379.5799999999999" as="sourcePoint" />
            <mxPoint x="731.3200000000003" y="379.5799999999999" as="targetPoint" />
          </mxGeometry>
        </mxCell>
        <mxCell id="o9eBtAJIPWO3o0ZU7rO9-18" value="" style="endArrow=none;html=1;entryX=1;entryY=0.089;entryDx=0;entryDy=0;entryPerimeter=0;exitX=-0.011;exitY=0.089;exitDx=0;exitDy=0;exitPerimeter=0;" edge="1" parent="1">
          <mxGeometry width="50" height="50" relative="1" as="geometry">
            <mxPoint x="610.0000000000003" y="449.99999999999994" as="sourcePoint" />
            <mxPoint x="731.3200000000003" y="449.99999999999994" as="targetPoint" />
          </mxGeometry>
        </mxCell>
        <mxCell id="o9eBtAJIPWO3o0ZU7rO9-19" value="" style="endArrow=classic;html=1;entryX=0.25;entryY=0.25;entryDx=0;entryDy=0;entryPerimeter=0;" edge="1" parent="1" target="o9eBtAJIPWO3o0ZU7rO9-80">
          <mxGeometry width="50" height="50" relative="1" as="geometry">
            <mxPoint x="320.72" y="270" as="sourcePoint" />
            <mxPoint x="439" y="330" as="targetPoint" />
          </mxGeometry>
        </mxCell>
        <mxCell id="o9eBtAJIPWO3o0ZU7rO9-20" value="" style="endArrow=classic;html=1;exitX=1.011;exitY=0.133;exitDx=0;exitDy=0;exitPerimeter=0;" edge="1" parent="1" source="o9eBtAJIPWO3o0ZU7rO9-1" target="o9eBtAJIPWO3o0ZU7rO9-80">
          <mxGeometry width="50" height="50" relative="1" as="geometry">
            <mxPoint x="250.72000000000023" y="726.72" as="sourcePoint" />
            <mxPoint x="430" y="350" as="targetPoint" />
          </mxGeometry>
        </mxCell>
        <mxCell id="o9eBtAJIPWO3o0ZU7rO9-21" value="" style="endArrow=classic;html=1;exitX=1.006;exitY=0.208;exitDx=0;exitDy=0;exitPerimeter=0;entryX=0.07;entryY=0.4;entryDx=0;entryDy=0;entryPerimeter=0;" edge="1" parent="1" source="o9eBtAJIPWO3o0ZU7rO9-1" target="o9eBtAJIPWO3o0ZU7rO9-80">
          <mxGeometry width="50" height="50" relative="1" as="geometry">
            <mxPoint x="332.03999999999996" y="301.9200000000001" as="sourcePoint" />
            <mxPoint x="420" y="350" as="targetPoint" />
          </mxGeometry>
        </mxCell>
        <mxCell id="o9eBtAJIPWO3o0ZU7rO9-22" value="" style="endArrow=classic;html=1;exitX=1.006;exitY=0.208;exitDx=0;exitDy=0;exitPerimeter=0;entryX=0.094;entryY=0.506;entryDx=0;entryDy=0;entryPerimeter=0;" edge="1" parent="1" target="o9eBtAJIPWO3o0ZU7rO9-80">
          <mxGeometry width="50" height="50" relative="1" as="geometry">
            <mxPoint x="321.4399999999998" y="329.9200000000001" as="sourcePoint" />
            <mxPoint x="400" y="350" as="targetPoint" />
          </mxGeometry>
        </mxCell>
        <mxCell id="o9eBtAJIPWO3o0ZU7rO9-23" value="" style="endArrow=classic;html=1;exitX=1.006;exitY=0.208;exitDx=0;exitDy=0;exitPerimeter=0;entryX=0.078;entryY=0.615;entryDx=0;entryDy=0;entryPerimeter=0;" edge="1" parent="1" target="o9eBtAJIPWO3o0ZU7rO9-80">
          <mxGeometry width="50" height="50" relative="1" as="geometry">
            <mxPoint x="320.7199999999998" y="350.4000000000001" as="sourcePoint" />
            <mxPoint x="437.72" y="350" as="targetPoint" />
          </mxGeometry>
        </mxCell>
        <mxCell id="o9eBtAJIPWO3o0ZU7rO9-24" value="4KB" style="text;html=1;strokeColor=none;fillColor=none;align=center;verticalAlign=middle;whiteSpace=wrap;rounded=0;" vertex="1" parent="1">
          <mxGeometry x="651.32" y="80" width="40" height="20" as="geometry" />
        </mxCell>
        <mxCell id="o9eBtAJIPWO3o0ZU7rO9-26" value="4KB" style="text;html=1;strokeColor=none;fillColor=none;align=center;verticalAlign=middle;whiteSpace=wrap;rounded=0;" vertex="1" parent="1">
          <mxGeometry x="651.32" y="140" width="40" height="20" as="geometry" />
        </mxCell>
        <mxCell id="o9eBtAJIPWO3o0ZU7rO9-27" value="4KB" style="text;html=1;strokeColor=none;fillColor=none;align=center;verticalAlign=middle;whiteSpace=wrap;rounded=0;" vertex="1" parent="1">
          <mxGeometry x="651.32" y="210" width="40" height="20" as="geometry" />
        </mxCell>
        <mxCell id="o9eBtAJIPWO3o0ZU7rO9-28" value="4KB" style="text;html=1;strokeColor=none;fillColor=none;align=center;verticalAlign=middle;whiteSpace=wrap;rounded=0;" vertex="1" parent="1">
          <mxGeometry x="651.32" y="280" width="40" height="20" as="geometry" />
        </mxCell>
        <mxCell id="o9eBtAJIPWO3o0ZU7rO9-29" value="4KB" style="text;html=1;strokeColor=none;fillColor=none;align=center;verticalAlign=middle;whiteSpace=wrap;rounded=0;" vertex="1" parent="1">
          <mxGeometry x="651.32" y="340" width="40" height="20" as="geometry" />
        </mxCell>
        <mxCell id="o9eBtAJIPWO3o0ZU7rO9-30" value="4KB" style="text;html=1;strokeColor=none;fillColor=none;align=center;verticalAlign=middle;whiteSpace=wrap;rounded=0;" vertex="1" parent="1">
          <mxGeometry x="651.32" y="400" width="40" height="20" as="geometry" />
        </mxCell>
        <mxCell id="o9eBtAJIPWO3o0ZU7rO9-31" value="....." style="text;html=1;strokeColor=none;fillColor=none;align=center;verticalAlign=middle;whiteSpace=wrap;rounded=0;" vertex="1" parent="1">
          <mxGeometry x="651.32" y="480" width="40" height="20" as="geometry" />
        </mxCell>
        <mxCell id="o9eBtAJIPWO3o0ZU7rO9-32" value="NAPOT PTE1(A:1D:1)" style="text;html=1;strokeColor=none;fillColor=none;align=left;verticalAlign=middle;whiteSpace=wrap;rounded=0;" vertex="1" parent="1">
          <mxGeometry x="200.72" y="260" width="189.28" height="20" as="geometry" />
        </mxCell>
        <mxCell id="o9eBtAJIPWO3o0ZU7rO9-33" value="&lt;span&gt;NAPOT PTE2(A:0D:0)&lt;/span&gt;" style="text;html=1;strokeColor=none;fillColor=none;align=left;verticalAlign=middle;whiteSpace=wrap;rounded=0;" vertex="1" parent="1">
          <mxGeometry x="200.72" y="280" width="219.28" height="20" as="geometry" />
        </mxCell>
        <mxCell id="o9eBtAJIPWO3o0ZU7rO9-43" value="........" style="text;html=1;strokeColor=none;fillColor=none;align=center;verticalAlign=middle;whiteSpace=wrap;rounded=0;" vertex="1" parent="1">
          <mxGeometry x="200.72000000000003" y="450" width="99.28" height="20" as="geometry" />
        </mxCell>
        <mxCell id="o9eBtAJIPWO3o0ZU7rO9-45" value="" style="endArrow=classic;startArrow=classic;html=1;" edge="1" parent="1">
          <mxGeometry width="50" height="50" relative="1" as="geometry">
            <mxPoint x="130" y="500" as="sourcePoint" />
            <mxPoint x="130" y="260" as="targetPoint" />
          </mxGeometry>
        </mxCell>
        <mxCell id="o9eBtAJIPWO3o0ZU7rO9-46" value="16个相同的NAPOT PTEs" style="text;html=1;strokeColor=none;fillColor=none;align=center;verticalAlign=middle;whiteSpace=wrap;rounded=0;" vertex="1" parent="1">
          <mxGeometry x="50" y="330" width="70" height="70" as="geometry" />
        </mxCell>
        <mxCell id="o9eBtAJIPWO3o0ZU7rO9-47" value="" style="rounded=0;whiteSpace=wrap;html=1;" vertex="1" parent="1">
          <mxGeometry x="200.72" y="540" width="124.5" height="170" as="geometry" />
        </mxCell>
        <mxCell id="o9eBtAJIPWO3o0ZU7rO9-48" value="内存中的页表" style="text;html=1;strokeColor=none;fillColor=none;align=center;verticalAlign=middle;whiteSpace=wrap;rounded=0;" vertex="1" parent="1">
          <mxGeometry x="210.36" y="230" width="80" height="20" as="geometry" />
        </mxCell>
        <mxCell id="o9eBtAJIPWO3o0ZU7rO9-49" value="内存" style="text;html=1;strokeColor=none;fillColor=none;align=center;verticalAlign=middle;whiteSpace=wrap;rounded=0;" vertex="1" parent="1">
          <mxGeometry x="631.32" y="30" width="80" height="20" as="geometry" />
        </mxCell>
        <mxCell id="o9eBtAJIPWO3o0ZU7rO9-50" value="TLB" style="text;html=1;strokeColor=none;fillColor=none;align=center;verticalAlign=middle;whiteSpace=wrap;rounded=0;" vertex="1" parent="1">
          <mxGeometry x="220" y="730" width="80" height="20" as="geometry" />
        </mxCell>
        <mxCell id="o9eBtAJIPWO3o0ZU7rO9-51" value="" style="curved=1;endArrow=classic;html=1;entryX=-0.016;entryY=0.305;entryDx=0;entryDy=0;entryPerimeter=0;exitX=0;exitY=0.5;exitDx=0;exitDy=0;" edge="1" parent="1" source="o9eBtAJIPWO3o0ZU7rO9-32" target="o9eBtAJIPWO3o0ZU7rO9-47">
          <mxGeometry width="50" height="50" relative="1" as="geometry">
            <mxPoint x="160" y="290" as="sourcePoint" />
            <mxPoint x="400" y="420" as="targetPoint" />
            <Array as="points">
              <mxPoint x="170" y="320" />
              <mxPoint x="160" y="360" />
              <mxPoint x="160" y="390" />
            </Array>
          </mxGeometry>
        </mxCell>
        <mxCell id="o9eBtAJIPWO3o0ZU7rO9-54" value="" style="endArrow=none;html=1;exitX=0;exitY=0.121;exitDx=0;exitDy=0;exitPerimeter=0;entryX=1.001;entryY=0.117;entryDx=0;entryDy=0;entryPerimeter=0;" edge="1" parent="1" source="o9eBtAJIPWO3o0ZU7rO9-47" target="o9eBtAJIPWO3o0ZU7rO9-47">
          <mxGeometry width="50" height="50" relative="1" as="geometry">
            <mxPoint x="210" y="620" as="sourcePoint" />
            <mxPoint x="260" y="570" as="targetPoint" />
          </mxGeometry>
        </mxCell>
        <mxCell id="o9eBtAJIPWO3o0ZU7rO9-55" value="" style="endArrow=none;html=1;exitX=0;exitY=0.121;exitDx=0;exitDy=0;exitPerimeter=0;entryX=1.001;entryY=0.117;entryDx=0;entryDy=0;entryPerimeter=0;" edge="1" parent="1">
          <mxGeometry width="50" height="50" relative="1" as="geometry">
            <mxPoint x="200.72000000000003" y="585.68" as="sourcePoint" />
            <mxPoint x="325.34450000000015" y="584.9999999999999" as="targetPoint" />
          </mxGeometry>
        </mxCell>
        <mxCell id="o9eBtAJIPWO3o0ZU7rO9-56" value="" style="endArrow=none;html=1;exitX=0;exitY=0.121;exitDx=0;exitDy=0;exitPerimeter=0;entryX=1.001;entryY=0.117;entryDx=0;entryDy=0;entryPerimeter=0;" edge="1" parent="1">
          <mxGeometry width="50" height="50" relative="1" as="geometry">
            <mxPoint x="200.72000000000003" y="610.68" as="sourcePoint" />
            <mxPoint x="325.34450000000015" y="609.9999999999999" as="targetPoint" />
          </mxGeometry>
        </mxCell>
        <mxCell id="o9eBtAJIPWO3o0ZU7rO9-57" value="" style="endArrow=none;html=1;exitX=0;exitY=0.121;exitDx=0;exitDy=0;exitPerimeter=0;entryX=1.001;entryY=0.117;entryDx=0;entryDy=0;entryPerimeter=0;" edge="1" parent="1">
          <mxGeometry width="50" height="50" relative="1" as="geometry">
            <mxPoint x="200.72000000000003" y="630.68" as="sourcePoint" />
            <mxPoint x="325.34450000000015" y="629.9999999999999" as="targetPoint" />
          </mxGeometry>
        </mxCell>
        <mxCell id="o9eBtAJIPWO3o0ZU7rO9-58" value="" style="endArrow=none;html=1;exitX=0;exitY=0.121;exitDx=0;exitDy=0;exitPerimeter=0;entryX=1.001;entryY=0.117;entryDx=0;entryDy=0;entryPerimeter=0;" edge="1" parent="1">
          <mxGeometry width="50" height="50" relative="1" as="geometry">
            <mxPoint x="200.72000000000003" y="650.68" as="sourcePoint" />
            <mxPoint x="325.34450000000015" y="649.9999999999999" as="targetPoint" />
          </mxGeometry>
        </mxCell>
        <mxCell id="o9eBtAJIPWO3o0ZU7rO9-59" value="" style="endArrow=none;html=1;exitX=0;exitY=0.121;exitDx=0;exitDy=0;exitPerimeter=0;entryX=1.001;entryY=0.117;entryDx=0;entryDy=0;entryPerimeter=0;" edge="1" parent="1">
          <mxGeometry width="50" height="50" relative="1" as="geometry">
            <mxPoint x="200.72000000000003" y="670.68" as="sourcePoint" />
            <mxPoint x="325.34450000000015" y="669.9999999999999" as="targetPoint" />
          </mxGeometry>
        </mxCell>
        <mxCell id="o9eBtAJIPWO3o0ZU7rO9-60" value="" style="endArrow=none;html=1;exitX=0;exitY=0.121;exitDx=0;exitDy=0;exitPerimeter=0;entryX=1.001;entryY=0.117;entryDx=0;entryDy=0;entryPerimeter=0;" edge="1" parent="1">
          <mxGeometry width="50" height="50" relative="1" as="geometry">
            <mxPoint x="200.72000000000003" y="690.68" as="sourcePoint" />
            <mxPoint x="325.34450000000015" y="689.9999999999999" as="targetPoint" />
          </mxGeometry>
        </mxCell>
        <mxCell id="o9eBtAJIPWO3o0ZU7rO9-80" value="" style="ellipse;shape=cloud;whiteSpace=wrap;html=1;" vertex="1" parent="1">
          <mxGeometry x="440" y="310" width="120" height="80" as="geometry" />
        </mxCell>
        <mxCell id="o9eBtAJIPWO3o0ZU7rO9-63" value="64KB的连续内存" style="text;html=1;strokeColor=none;fillColor=none;align=center;verticalAlign=middle;whiteSpace=wrap;rounded=0;" vertex="1" parent="1">
          <mxGeometry x="455" y="340" width="90" height="30" as="geometry" />
        </mxCell>
        <mxCell id="o9eBtAJIPWO3o0ZU7rO9-81" value="" style="shape=singleArrow;whiteSpace=wrap;html=1;" vertex="1" parent="1">
          <mxGeometry x="560" y="335" width="50" height="30" as="geometry" />
        </mxCell>
        <mxCell id="o9eBtAJIPWO3o0ZU7rO9-82" value="" style="endArrow=classic;html=1;exitX=1.016;exitY=0.708;exitDx=0;exitDy=0;exitPerimeter=0;entryX=0.13;entryY=0.77;entryDx=0;entryDy=0;entryPerimeter=0;" edge="1" parent="1" source="o9eBtAJIPWO3o0ZU7rO9-1" target="o9eBtAJIPWO3o0ZU7rO9-80">
          <mxGeometry width="50" height="50" relative="1" as="geometry">
            <mxPoint x="330" y="500" as="sourcePoint" />
            <mxPoint x="380" y="450" as="targetPoint" />
          </mxGeometry>
        </mxCell>
        <mxCell id="o9eBtAJIPWO3o0ZU7rO9-83" value="" style="endArrow=classic;html=1;exitX=1.033;exitY=0.958;exitDx=0;exitDy=0;exitPerimeter=0;entryX=0.31;entryY=0.8;entryDx=0;entryDy=0;entryPerimeter=0;" edge="1" parent="1" source="o9eBtAJIPWO3o0ZU7rO9-1" target="o9eBtAJIPWO3o0ZU7rO9-80">
          <mxGeometry width="50" height="50" relative="1" as="geometry">
            <mxPoint x="370" y="510" as="sourcePoint" />
            <mxPoint x="420" y="460" as="targetPoint" />
          </mxGeometry>
        </mxCell>
        <mxCell id="o9eBtAJIPWO3o0ZU7rO9-84" value="......" style="text;html=1;strokeColor=none;fillColor=none;align=center;verticalAlign=middle;whiteSpace=wrap;rounded=0;" vertex="1" parent="1">
          <mxGeometry x="334" y="370" width="80" height="20" as="geometry" />
        </mxCell>
        <mxCell id="o9eBtAJIPWO3o0ZU7rO9-85" value="NAPOT PTE3(A:0D:0)" style="text;html=1;strokeColor=none;fillColor=none;align=left;verticalAlign=middle;whiteSpace=wrap;rounded=0;" vertex="1" parent="1">
          <mxGeometry x="200.72" y="300" width="219.28" height="20" as="geometry" />
        </mxCell>
        <mxCell id="o9eBtAJIPWO3o0ZU7rO9-86" value="NAPOT PTE4(A:0D:0)" style="text;html=1;strokeColor=none;fillColor=none;align=left;verticalAlign=middle;whiteSpace=wrap;rounded=0;" vertex="1" parent="1">
          <mxGeometry x="200.72" y="320" width="219.28" height="20" as="geometry" />
        </mxCell>
        <mxCell id="o9eBtAJIPWO3o0ZU7rO9-87" value="NAPOT PTE5(A:0D:0)" style="text;html=1;strokeColor=none;fillColor=none;align=left;verticalAlign=middle;whiteSpace=wrap;rounded=0;" vertex="1" parent="1">
          <mxGeometry x="200.72" y="340" width="219.28" height="20" as="geometry" />
        </mxCell>
        <mxCell id="o9eBtAJIPWO3o0ZU7rO9-88" value="NAPOT PTE6(A:0D:0)" style="text;html=1;strokeColor=none;fillColor=none;align=left;verticalAlign=middle;whiteSpace=wrap;rounded=0;" vertex="1" parent="1">
          <mxGeometry x="200.72" y="360" width="219.28" height="20" as="geometry" />
        </mxCell>
        <mxCell id="o9eBtAJIPWO3o0ZU7rO9-89" value="NAPOT PTE7(A:0D:0)" style="text;html=1;strokeColor=none;fillColor=none;align=left;verticalAlign=middle;whiteSpace=wrap;rounded=0;" vertex="1" parent="1">
          <mxGeometry x="200.72" y="380" width="219.28" height="20" as="geometry" />
        </mxCell>
        <mxCell id="o9eBtAJIPWO3o0ZU7rO9-90" value="NAPOT PTE8(A:0D:0)" style="text;html=1;strokeColor=none;fillColor=none;align=left;verticalAlign=middle;whiteSpace=wrap;rounded=0;" vertex="1" parent="1">
          <mxGeometry x="200.72000000000003" y="400" width="219.28" height="20" as="geometry" />
        </mxCell>
        <mxCell id="o9eBtAJIPWO3o0ZU7rO9-91" value="NAPOT PTE9(A:0D:0)" style="text;html=1;strokeColor=none;fillColor=none;align=left;verticalAlign=middle;whiteSpace=wrap;rounded=0;" vertex="1" parent="1">
          <mxGeometry x="200.72000000000003" y="420" width="219.28" height="20" as="geometry" />
        </mxCell>
        <mxCell id="o9eBtAJIPWO3o0ZU7rO9-92" value="&lt;span&gt;NAPOT PTE1(A:1D:1)&lt;/span&gt;" style="text;html=1;strokeColor=none;fillColor=none;align=left;verticalAlign=middle;whiteSpace=wrap;rounded=0;" vertex="1" parent="1">
          <mxGeometry x="200.72000000000003" y="590" width="219.28" height="20" as="geometry" />
        </mxCell>
        <mxCell id="o9eBtAJIPWO3o0ZU7rO9-94" style="edgeStyle=orthogonalEdgeStyle;rounded=0;orthogonalLoop=1;jettySize=auto;html=1;exitX=1;exitY=0.5;exitDx=0;exitDy=0;entryX=1;entryY=0.048;entryDx=0;entryDy=0;entryPerimeter=0;" edge="1" parent="1" source="o9eBtAJIPWO3o0ZU7rO9-93" target="o9eBtAJIPWO3o0ZU7rO9-2">
          <mxGeometry relative="1" as="geometry" />
        </mxCell>
        <mxCell id="o9eBtAJIPWO3o0ZU7rO9-95" value="write" style="edgeLabel;html=1;align=center;verticalAlign=middle;resizable=0;points=[];fontColor=#FF0000;" vertex="1" connectable="0" parent="o9eBtAJIPWO3o0ZU7rO9-94">
          <mxGeometry x="-0.442" y="-2" relative="1" as="geometry">
            <mxPoint as="offset" />
          </mxGeometry>
        </mxCell>
        <mxCell id="o9eBtAJIPWO3o0ZU7rO9-93" value="CPU" style="ellipse;shape=doubleEllipse;whiteSpace=wrap;html=1;aspect=fixed;" vertex="1" parent="1">
          <mxGeometry x="440" y="560" width="80" height="80" as="geometry" />
        </mxCell>
      </root>
    </mxGraphModel>
  </diagram>
</mxfile>
